<svg xmlns="http://www.w3.org/2000/svg" width="865.76" height="682.89" viewBox="0 0 865.76 682.89"><path d="M176.38,443.51V290.2C176.38,144,294.92,25.45,441.13,25.45h0C587.35,25.45,705.88,144,705.88,290.2V588.81l-578.4-.47V443.51Z" fill="#e6e6e6"/><rect x="32.02" y="588.81" width="809.77" height="39.5" fill="#ccc"/><rect x="59.76" y="443.51" width="67.72" height="144.84" fill="#b3b3b3"/><rect x="705.88" y="386.14" width="81.82" height="241.71" fill="#b3b3b3"/><path d="M705.88,455.53V521.1s64-.47,70.07,67.71v39.5h65.84v-39.5S837.55,463.26,705.88,455.53Z" fill="#999"/><rect x="794.29" y="598.69" width="47.97" height="29.16" fill="#ccc"/><rect x="723.75" y="345.69" width="63.95" height="28.21" fill="#ccc"/><rect x="723.75" y="317.48" width="63.95" height="23.51" fill="#ccc"/><rect x="723.75" y="290.2" width="63.95" height="18.81" fill="#ccc"/><rect x="723.75" y="261.99" width="63.95" height="14.11" fill="#ccc"/><path d="M59.76,443.51h67.72V377.67S68.23,374.85,59.76,443.51Z" fill="#ccc"/><rect x="93.62" y="247.88" width="25.39" height="195.62" fill="#999"/><rect x="127.48" y="293.03" width="48.91" height="150.48" fill="#ccc"/><rect x="68.23" y="281.74" width="15.05" height="86.53" fill="#b3b3b3"/><path d="M127.48,443.51v50.11s48.9-.27,48.9-50.11Z" fill="#b3b3b3"/><rect x="182.97" y="502.76" width="168.35" height="85.59" fill="#b3b3b3"/><rect x="351.32" y="443.51" width="163.65" height="144.84" fill="#999"/><rect x="514.96" y="535.67" width="163.65" height="52.67" fill="#b3b3b3"/><ellipse cx="437.37" cy="421.87" rx="61.6" ry="11.29" fill="#5f5b9f"/><ellipse cx="437.37" cy="421.87" rx="61.6" ry="11.29" opacity="0.2"/><path d="M499,421.87,498,445.39c-2.2,2.86-6.34,5.09-11.41,6.85-6.6,2.29-14.74,3.75-22.17,4.69-11.32,1.43-21,1.62-21,1.62-56.43,2.83-67.72-13-67.72-13V421.87c0,6.24,27.58,11.29,61.6,11.29,6.71,0,13.16-.2,19.2-.55h0c14-.84,25.81-2.58,33.37-4.84C495.68,426,499,424,499,421.87Z" fill="#5f5b9f"/><path d="M457.59,325.94l-43.26.94v10.95s.94,1.28,3.76,1.28a115.91,115.91,0,0,1-6,36.95A67.83,67.83,0,0,1,397.1,400a26.76,26.76,0,0,0-7.29,21.87s8.53,7.53,49.91,6.59c0,0,34.53,0,45.48-6.59v-8.26s-1.27-7.72-10.68-17.13c0,0-12.22-11.29-15-40.44l-1.88-30.1" fill="#f20004"/><path d="M515,138.31c0,2.35-35.15,4.24-78.53,4.24s-78.53-1.89-78.53-4.24c0-.16.16-.32.48-.47,4.34-2.11,37.63-3.76,78.05-3.76C479.81,134.08,515,136,515,138.31Z" fill="#f20004"/><path d="M515,138.31c0,2.35-35.15,4.24-78.53,4.24s-78.53-1.89-78.53-4.24c0-.16.16-.32.48-.47,4.34-2.11,37.63-3.76,78.05-3.76C479.81,134.08,515,136,515,138.31Z" opacity="0.2"/><path d="M514.2,154.66s4.52-6.47,6.41-3.65c0,0,.94.91,0,6.57,0,0-.67,4,3.64,3a8.78,8.78,0,0,0,4.09-2.32c4-3.92,17.83-15.72,28.95-5.4,0,0,20.45,10.56,8.31,49.9a118.06,118.06,0,0,1-29.3,48.13,243.57,243.57,0,0,1-43.91,34.58s-1.88,2.82-1.88,10.35c0,0,1.88,7.52-1.88,6.58,0,0-9.08-1.58-5-16.31,0,0,1.25-6.26,9.71-10,0,0,38.56-18.81,56.43-63,0,0,18.81-48-3.76-54.55,0,0-1.88-2.82-13.17,5.65,0,0-11.37,9.87-19.32-.24Z" fill="#5f5b9f"/><path d="M358.18,152.78s-4.52-6.47-6.41-3.65c0,0-.94.9,0,6.57,0,0,.67,4-3.64,3a8.68,8.68,0,0,1-4.09-2.31c-4-3.92-17.83-15.72-29-5.4,0,0-20.45,10.56-8.31,49.9A118.12,118.12,0,0,0,336.08,249,244,244,0,0,0,380,283.62s1.88,2.82,1.88,10.35c0,0-1.88,7.52,1.88,6.58,0,0,9.08-1.58,5-16.31,0,0-1.25-6.26-9.71-10,0,0-38.56-18.81-56.43-63,0,0-18.81-48,3.76-54.55,0,0,1.88-2.82,13.17,5.65,0,0,11.37,9.86,19.32-.24Z" fill="#5f5b9f"/><path d="M418.09,339.11c11.66,1.77,23.83,2.7,35.36-.26a47.09,47.09,0,0,0,4.85-1.55,36.25,36.25,0,0,1-4.72,2c-11.43,3.67-24,2.78-35.49-.18Z" opacity="0.2"/><circle cx="105.38" cy="216.38" r="22.1" fill="#ccc"/><ellipse cx="435.96" cy="326.88" rx="21.63" ry="4.7" fill="#5f5b9f"/><path d="M515,138.31c-2.82,95.46-32.91,151-32.91,151-16.93,43.27-46.09,40-46.09,40-34.8-.47-56.43-67.24-56.43-67.24-24.45-74.3-21.63-124.15-21.63-124.15h.48c-.32.15-.48.31-.48.47,0,2.35,35.16,4.24,78.53,4.24S515,140.66,515,138.31Z" fill="#f20004"/><path d="M465.12,259.85v17.44a3.51,3.51,0,0,1-3.51,3.51H411.25a3.51,3.51,0,0,1-3.5-3.51V259.85a3.5,3.5,0,0,1,3.5-3.5H427.5V202.74l-10.82,6c-8,4.14-8-4.14-8-4.14l-.94-13.12c0-11.25,6.58-10.39,6.58-10.39,3.11,0,6.24-1.78,8.81-3.86a38.37,38.37,0,0,0,6.24-6.49,6.81,6.81,0,0,1,7.52-4.7h9.41c5.64,0,4.75,5.64,4.75,5.64v84.65h10.55A3.51,3.51,0,0,1,465.12,259.85Z" fill="#fff" opacity="0.63"/><path d="M465.12,259.85v17.44a3.51,3.51,0,0,1-3.51,3.51H456a13,13,0,0,0,2.65-4.21,1.65,1.65,0,0,0,.13-.66V264.58a1.83,1.83,0,0,0-1.83-1.82H443.49v-87.3c0-4.24-2.13-5.4-4.25-5.53a6.41,6.41,0,0,0-5.32,2.72c-3.55,4.68-10.78,4.6-10.78,4.6a38.37,38.37,0,0,0,6.24-6.49,6.81,6.81,0,0,1,7.52-4.7h9.41c5.64,0,4.75,5.64,4.75,5.64v84.65h10.55A3.51,3.51,0,0,1,465.12,259.85Z" fill="#fff" opacity="0.63"/><path d="M496.15,229.07c-8.46,69.6-43.26,85.59-43.26,85.59-7.52,4.7-3.7,11.28-3.7,11.28,2.73,9.14,2.32,12.44,1.46,13.59a12.44,12.44,0,0,0-2.76,7.52c.19,12.53,7.72,35.11,12.46,48.16a68.78,68.78,0,0,0,7.74,14.88c6.6,9.82,4.48,18.45,4.48,18.45-.84,4.81,10.42.14,14-1.46a3,3,0,0,1,2.72.08,1.91,1.91,0,0,1,.65.6c1.74,2.79-9.81,8.22-9.81,8.22-5.64,5.64,6.46,16.26,6.46,16.26-6.6,2.29-14.74,3.75-22.17,4.69-1.9-1.92-1.12-6.34-.6-8.48a7.2,7.2,0,0,0-.05-3.88c-2.26-7.37-14.11-5.24-17.64-4.43a2.62,2.62,0,0,1-2.39-.57c-3.17-3,11.94-6.75,12.8-7h0c7.48-15.62,1-21.39,1-21.39-14.1-26.65-19.75-58-19.75-58-2.12-9.92,1.62-14.5,3.59-16.16a5.36,5.36,0,0,0,2-3.95c.12-5.06-6.06-8.83-6.06-8.83-4.2-1.66,6.08-7.74,6.08-7.74l10.27-9.82a109.17,109.17,0,0,0,23-31.44c8.29-17.25,9-30.22,9-30.22C487.69,230,475.17,238,475.17,238c-18.15,8-9.11-32.41-9.11-32.41,4.7-20.69,3.76-53.61,3.76-53.61,0-7.52,5.35-9.95,5.35-9.95,4.42.39,25.31-1.23,25.31-1.23,2.44,12.32-20.32,67.61-20.32,67.61-1.93,4.84-2.12,8-1.86,9.81a2,2,0,0,0,2.81,1.45C497.9,211.54,496.15,229.07,496.15,229.07Z" fill="#fff" opacity="0.33"/><path d="M358.34,398.32h0a4.59,4.59,0,0,0,.61,6.8l2.09,1.57a4.59,4.59,0,0,0,5.84-.27l21.36-19.32s9.2-1.15,4.6-10.35c0,0-9.09-17.55-23-16.25,0,0-3.51.14-4.66,4.74,0,0,5.89-1.52,9.28,1,0,0,9.05,5.22,14,11.57a5.44,5.44,0,0,1,1.2,3.28c0,.87-.28,1.44-1.43.29,0,0-6.91-5.75-12.66,1.15Z" fill="#f20004"/><path d="M365.22,365.24s-1.65,6,5.5,14.51l3.75,3.77,2.26-2.22a13,13,0,0,1,3.3-1.9s-10.89-7.86-8.82-14.46A10.19,10.19,0,0,0,365.22,365.24Z" fill="#f20004"/><path d="M365.22,365.24s-1.65,6,5.5,14.51l3.75,3.77,2.26-2.22a13,13,0,0,1,3.3-1.9s-10.89-7.86-8.82-14.46A10.19,10.19,0,0,0,365.22,365.24Z" opacity="0.2"/><path d="M222.55,480.3,219.1,501s-33.36,32.21-26.46,85.14l20.71,3.45L249,496.83S235.21,495.26,222.55,480.3Z" fill="#f7a48b"/><path d="M322.65,498.71s-12.65,13.8-39.12,18.41c0,0-54.07,16.83-61,21.08,0,0-9.69-11.12-8.23-19.14a7.49,7.49,0,0,1,.18-.79s39.12-31.07,64.43-28.77L272.37,484l-.34-.29s.29.06.82.13a44.08,44.08,0,0,0,14.26-.53c7.64-1.64,15.94-6.09,19-17.23C306.1,466.12,333,483.75,322.65,498.71Z" fill="#f9b499"/><path d="M289.29,494.11s-27.1-3.26-75,24.95a7.49,7.49,0,0,1,.18-.79s39.12-31.07,64.43-28.77L272.37,484l.48-.16L287,479.15s0,1.82.12,4.2C287.32,487.25,287.86,492.68,289.29,494.11Z" fill="#f7a48b"/><path d="M264.1,478.79l-3.86,7.73-5.5,11c-13.47-.75-23-7.79-28.06-12.65a36.92,36.92,0,0,1-4.13-4.6l4.89-24.88a62.34,62.34,0,0,1,10,6.69Z" fill="#5f5b9f"/><path d="M264.1,478.79l-3.86,7.73c-6.92-3.68-24.78-11.69-33.56-1.62a36.92,36.92,0,0,1-4.13-4.6l4.89-24.88a62.34,62.34,0,0,1,10,6.69Z" opacity="0.4"/><path d="M238.87,359.94v13.73s18.32,20.46,51.63,11.2l-.06-17.33S272.6,368.12,238.87,359.94Z" fill="#f9b499"/><path d="M278.9,259.39c-.81,12.77-6.83,23.27-14.44,26.52a12.41,12.41,0,0,1-5.74,1c-10.15-.64-17.56-14-16.57-29.86.7-11.08,5.31-20.45,11.49-24.85a13.42,13.42,0,0,1,8.69-2.71C272.48,230.17,279.89,243.54,278.9,259.39Z" fill="#f9b499"/><path d="M264.46,285.91c-7.17,9-17.41,5.51-23.68,2a17.62,17.62,0,0,1-9.08-13.47c-.65-6.91,3.51-10.41,3.51-10.41a19.08,19.08,0,0,0,2.66-13.16,28.4,28.4,0,0,1-.27-6.83c1.62-17,16.63-17.68,16.63-17.68-1.19,3.73,1.12,4.88,1.12,4.88-6.18,4.41-12.5,14.81-13.2,25.89-1,15.85,6.42,29.22,16.57,29.86A12.41,12.41,0,0,0,264.46,285.91Z" fill="#5f5b9f"/><path d="M264.46,285.91c-7.17,9-17.41,5.51-23.68,2a17.62,17.62,0,0,1-9.08-13.47c-.65-6.91,3.51-10.41,3.51-10.41a19.08,19.08,0,0,0,2.66-13.16,28.4,28.4,0,0,1-.27-6.83c1.62-17,16.63-17.68,16.63-17.68-1.19,3.73,1.12,4.88,1.12,4.88-6.18,4.41-12.5,14.81-13.2,25.89-1,15.85,6.42,29.22,16.57,29.86A12.41,12.41,0,0,0,264.46,285.91Z" opacity="0.2"/><path d="M278.36,262.27a46.41,46.41,0,0,1,1.15,9.2,39.83,39.83,0,0,1-1.09,8.25c-.06.32-1.25,7.77,4.21,12.47,2,1.7,4.83,2.87,9,2.87l2.3,17.26-11.51,5.75-25.31-5.75-5.91-20.69a14.78,14.78,0,0,0,13.3-5.72S274.83,281,278.36,262.27Z" fill="#f9b499"/><path d="M264.46,285.91a13.73,13.73,0,0,1-13.3,5.72S271.05,296.14,279,287a16.85,16.85,0,0,1-.6-7.25l.43-16.51S276.45,280.22,264.46,285.91Z" fill="#f7a48b"/><path d="M312.3,331.88c-3.45,3.45-6.91-9.21-6.91-9.21a30.34,30.34,0,0,1-8.72,25.87c-4.13,15.49-6.23,19-6.23,19a56.13,56.13,0,0,1-13.56.45h0c-18.43-1.29-39.36-8.5-39.36-8.5,2.11-30.57-19.94-47.62-23.64-50.27a.5.5,0,0,1,0-.79,28.32,28.32,0,0,0,8.72-23.73h9.08c11.38-2.3,19.54,6.93,19.54,6.93l5.9,20.69,25.31,5.75,11.51-5.75-2.3-17.26C315.75,295.06,312.3,331.88,312.3,331.88Z" fill="#f20004"/><path d="M268.58,348s-25.32-1.15-23,5.76c0,0-.65,5.5,31.3,14.25-18.43-1.29-39.36-8.5-39.36-8.5,2.11-30.57-19.94-47.62-23.64-50.27a.5.5,0,0,1,0-.79,28.32,28.32,0,0,0,8.72-23.73,55.47,55.47,0,0,1,1.7,19.45,6,6,0,0,0,4.07,6.31c3.4,1.11,8.19.79,12.63-6.17-.24.81-6.8,23.08,9.11,27.6,0,0,40.38,5.74,40.38,12.64C290.44,344.53,292.74,351.44,268.58,348Z" opacity="0.2"/><path d="M135.11,222.57s72.49,55.23,87.44,62.13c0,0,2.12,14.09-8.72,23.73L138.56,249S127.06,236.38,135.11,222.57Z" fill="#f9b499"/><path d="M135.11,222.57l14.6,11s7.26,28.09,26.82,41.9l33.37,23s5.52,4.6,10.81,0a21.66,21.66,0,0,1-6.88,9.92L138.56,249S127.06,236.38,135.11,222.57Z" fill="#f7a48b"/><path d="M306.55,464.19a23.94,23.94,0,0,1-3.81,9.34C293.33,487,272,483.75,272,483.75l-34.58-21.64A68.4,68.4,0,0,1,208.75,432a28.92,28.92,0,0,1-1.37-16.8c4.51-22.53,31.28-41.88,31.28-41.88s6.26,8.51,24.41,12.94c10.59,2.58,27.43-1.37,27.43-1.37,2.35,21.92-12.72,54-12.72,54Z" fill="#5f5b9f"/><path d="M302.74,473.53C293.33,487,272,483.75,272,483.75l-34.58-21.64A68.4,68.4,0,0,1,208.75,432a28.92,28.92,0,0,1-1.37-16.8c.09.86,2.05,17.38,26.68,38.66,0,0,26.46,21.86,46,21.86Z" opacity="0.2"/><path d="M277.78,438.88s-13.57-9.25-13.67-18.17a6.14,6.14,0,0,1,2.76-5.27c2.74-1.79,8.5-3.59,19.65-.26C286.52,415.18,282.38,429.67,277.78,438.88Z" opacity="0.4"/><path d="M214.5,518.27l-17.26,12.65s-1.15,12.66,5.75,18.41l19.56-11.13S212.2,526.32,214.5,518.27Z" fill="#e6e6e6"/><path d="M213.35,589.6l-5.75,25.31a2.7,2.7,0,0,1-.42,0,26.25,26.25,0,0,1-9-.93l-.46-.12a61.5,61.5,0,0,1-11.28-4.35c-.24-.12-.49-.25-.73-.39l6.9-23Z" fill="#e6e6e6"/><path d="M200.69,578.1c2.3,12.65-6.9,13.8-6.9,13.8a3.38,3.38,0,0,1-1.23.25h0c-5.47,0-11.42-12.9-11.42-12.9-3-5.25-2.57-13.42-1.92-18.48a9.22,9.22,0,0,0-2-6.88c-3.36-4.25-4.66-11.85-5.09-15.35A3.69,3.69,0,0,1,173.7,535c6.27-4,23.54-4,23.54-4-1.15,13.81,5.75,18.41,5.75,18.41C197.24,557.39,200.69,578.1,200.69,578.1Z" fill="#f20004"/><path d="M192.55,592.15c-16.17,9.42-19.47-34.76-19.47-34.76l-3.45-11.51c-3.45-9.2,4.07-10.92,4.07-10.92a3.69,3.69,0,0,0-1.57,3.58c.43,3.5,1.73,11.1,5.09,15.35a9.22,9.22,0,0,1,2,6.88c-.65,5.06-1.07,13.23,1.92,18.48C181.13,579.25,187.08,592.15,192.55,592.15Z" fill="#5f5b9f"/><path d="M228,653a4,4,0,0,1-.9,1,4.43,4.43,0,0,1-3.39,1c-15.37-1.77-19.55-10.15-19.55-10.15a20.12,20.12,0,0,0-18.41-7c-5.25-.06-10.39-5.65-12.57-8.33a4,4,0,0,1-.79-3.5c1.94-8.14,13.36-16.87,13.36-16.87.24.14.49.27.73.39a48.79,48.79,0,0,0,11.28,4.35l.46.12a26.25,26.25,0,0,0,9,.93,2.7,2.7,0,0,0,.42,0c-.92,10.13,10.66,19.51,15.35,22.87a16,16,0,0,1,4.8,5.35C230.19,647.63,229.24,651,228,653Z" fill="#f20004"/><path d="M227.16,654c-7.29,13.63-54.78-18-54.78-18-4.17-4.21,0-10,0-10a4,4,0,0,0,.79,3.5c2.18,2.68,7.32,8.27,12.57,8.33a20.12,20.12,0,0,1,18.41,7s4.18,8.38,19.55,10.15a4.43,4.43,0,0,0,3.39-1Z" fill="#5f5b9f"/><path d="M312.3,331.88l3.45,26.46,44.87,26.46s6.91-4.6,12.66-5.75c0,0,4.6-1.15,2.3,3.45,0,0-6.9,5.75-3.45,8.06a26.81,26.81,0,0,0,8.91.23,1.27,1.27,0,0,1,1.46,1.14c.14,2-.68,5.53-8.07,5.53,0,0-18.41,3.45-24.16-3.45l-37.8-13.89s-11.68-3.37-12.83-13.73l-4.51-12.26,1.54-5.59a30.34,30.34,0,0,0,8.72-25.87S308.85,335.33,312.3,331.88Z" fill="#f9b499"/><path d="M119,216.82a174.69,174.69,0,0,1,6.91,37.25l18.41-5s-11.23-19.56-9.64-38Z" fill="#f20004"/><path d="M121.17,250.61h29.48a8,8,0,0,1,8,8v1.2a0,0,0,0,1,0,0H113.17a0,0,0,0,1,0,0v-1.2a8,8,0,0,1,8-8Z" transform="translate(-64.93 47.2) rotate(-15.96)" fill="#5f5b9f"/><path d="M114.17,256.9h47A4.79,4.79,0,0,1,166,261.7v5.81a0,0,0,0,1,0,0h-56.7a0,0,0,0,1,0,0v-5.73A4.87,4.87,0,0,1,114.17,256.9Z" transform="translate(-66.78 47.95) rotate(-15.96)" fill="#f20004"/><rect x="107.32" y="266.9" width="65.18" height="5" rx="2.17" transform="translate(-68.68 48.85) rotate(-15.96)" fill="#5f5b9f"/><path d="M150.55,174.12c-.09-.64-.21-1.28-.35-1.92C150.34,172.84,150.46,173.48,150.55,174.12Z" fill="#f20004"/><path d="M150.1,171.73q-.22-1-.51-2.07Q149.88,170.7,150.1,171.73Z" fill="#f20004"/><path d="M150.82,176.34q-.09-1-.24-2.07Q150.73,175.31,150.82,176.34Z" fill="#f20004"/><path d="M150.94,178.56c0-.58,0-1.17-.09-1.75C150.9,177.39,150.93,178,150.94,178.56Z" fill="#f20004"/><path d="M167.33,166.2l-4.6-15c-5.76-13.81-20.62-7.71-20.62-7.71l7.48,26.13-5.88-20.55s12.11-4.78,15.56,6.73l3.46,11.51s3.86,13.6-11.88,14.85h0c0-.28,0-.57.05-.85a35.71,35.71,0,0,1-.93,6.37C174,185.08,167.33,166.2,167.33,166.2Z" fill="#f20004"/><path d="M151,178.91c0,.67,0,1.35,0,2C151,180.26,151,179.58,151,178.91Z" fill="#f20004"/><path d="M150.94,178.56c0,.12,0,.23,0,.35C151,178.79,150.94,178.68,150.94,178.56Z" fill="#f20004"/><path d="M150.9,181.34c0-.14,0-.27,0-.41C150.92,181.07,150.91,181.2,150.9,181.34Z" fill="#f20004"/><path d="M150.85,176.81l0-.47Z" fill="#f20004"/><path d="M150.58,174.27l0-.15Z" fill="#f20004"/><path d="M150.2,172.2c0-.16-.06-.32-.1-.47C150.14,171.88,150.17,172,150.2,172.2Z" fill="#f20004"/><path d="M86.54,200.08c-6.55,2.22-11.07.49-14-1.89a14.33,14.33,0,0,1-4.93-8.67l-1.59-9c-1.61-9.09,5.69-11.9,9.14-12.7l-1.61-5.64c-4.39,1-13.5,4.41-12.68,15.79l2.61,15.43s5,18.61,26.82,11.13A34.4,34.4,0,0,1,86.54,200.08Z" fill="#f20004"/><path d="M258.22,222.57a8.56,8.56,0,0,0-4.78,6.13,7.94,7.94,0,0,0,7,8.88,19.53,19.53,0,0,0,2.18.17,16.6,16.6,0,0,1,16.18,14.89c0,.19,0,.38.05.57v15.13c0,3.79-.09,7.6-.43,11.38-.47,5.11.22,15.34,13.17,15.34,0,0,23-2.3,20.71,36.82,0,0,26.46,1.15,27.61-25.32,0,0,2.3-12.65-18.41-23,0,0,6.77-17.4-7.17-22.07a17.22,17.22,0,0,0-6.26-.8c-3.81.17-11.92-.12-11.4-5.62C297.34,247.89,280.08,213.37,258.22,222.57Z" fill="#5f5b9f"/><ellipse cx="281.23" cy="258.82" rx="5.75" ry="7.48" fill="#f9b499"/><ellipse cx="125.91" cy="211.07" rx="11.51" ry="10.36" fill="#f20004"/><ellipse cx="125.91" cy="211.07" rx="11.51" ry="10.36" opacity="0.2"/><path d="M150.85,182.19h0a35.52,35.52,0,0,1-60.53,22.34,34.4,34.4,0,0,1-3.78-4.46,35.19,35.19,0,0,1-5.25-10.9l-6.11-21.35-1.61-5.64-2.67-9.34,68.28-19.53,2.93,10.21,1.6,5.58,5.88,20.55A35.65,35.65,0,0,1,150.85,182.19Z" fill="#f20004"/><circle cx="114.4" cy="174.25" r="13.81" opacity="0.2"/><circle cx="113.25" cy="175.4" r="10.36" opacity="0.2"/><rect x="66.81" y="139.19" width="77.12" height="6.9" rx="3" transform="translate(-35.16 34.47) rotate(-15.96)" fill="#5f5b9f"/><path d="M107.5,219.12s-4.65-9.5,3.43-12.8,15,8.34,17.28,18.05a12.7,12.7,0,0,1-3,10.79,6.5,6.5,0,0,1-9.54-.08C113.07,232.23,109.84,227.31,107.5,219.12Z" fill="#f9b499"/></svg>